<svg xmlns="http://www.w3.org/2000/svg" viewBox="0 0 1920 1080">

<defs>
  <filter id="glow">
    <feGaussianBlur stdDeviation="3" result="coloredBlur"/>
    <feMerge>
      <feMergeNode in="coloredBlur"/>
      <feMergeNode in="SourceGraphic"/>
    </feMerge>
  </filter>
  <linearGradient id="bgFade" x1="0" y1="0" x2="0" y2="1">
    <stop offset="0%" stop-color="#051326"/>
    <stop offset="100%" stop-color="#0b2345"/>
  </linearGradient>
</defs>
<rect width="100%" height="100%" fill="url(#bgFade)"/>
<g stroke="#1a3b66" stroke-width="1" stroke-opacity="0.3">
<line x1="0" y1="0" x2="0" y2="1080" />
<line x1="40" y1="0" x2="40" y2="1080" />
<line x1="80" y1="0" x2="80" y2="1080" />
<line x1="120" y1="0" x2="120" y2="1080" />
<line x1="160" y1="0" x2="160" y2="1080" />
<line x1="200" y1="0" x2="200" y2="1080" />
<line x1="240" y1="0" x2="240" y2="1080" />
<line x1="280" y1="0" x2="280" y2="1080" />
<line x1="320" y1="0" x2="320" y2="1080" />
<line x1="360" y1="0" x2="360" y2="1080" />
<line x1="400" y1="0" x2="400" y2="1080" />
<line x1="440" y1="0" x2="440" y2="1080" />
<line x1="480" y1="0" x2="480" y2="1080" />
<line x1="520" y1="0" x2="520" y2="1080" />
<line x1="560" y1="0" x2="560" y2="1080" />
<line x1="600" y1="0" x2="600" y2="1080" />
<line x1="640" y1="0" x2="640" y2="1080" />
<line x1="680" y1="0" x2="680" y2="1080" />
<line x1="720" y1="0" x2="720" y2="1080" />
<line x1="760" y1="0" x2="760" y2="1080" />
<line x1="800" y1="0" x2="800" y2="1080" />
<line x1="840" y1="0" x2="840" y2="1080" />
<line x1="880" y1="0" x2="880" y2="1080" />
<line x1="920" y1="0" x2="920" y2="1080" />
<line x1="960" y1="0" x2="960" y2="1080" />
<line x1="1000" y1="0" x2="1000" y2="1080" />
<line x1="1040" y1="0" x2="1040" y2="1080" />
<line x1="1080" y1="0" x2="1080" y2="1080" />
<line x1="1120" y1="0" x2="1120" y2="1080" />
<line x1="1160" y1="0" x2="1160" y2="1080" />
<line x1="1200" y1="0" x2="1200" y2="1080" />
<line x1="1240" y1="0" x2="1240" y2="1080" />
<line x1="1280" y1="0" x2="1280" y2="1080" />
<line x1="1320" y1="0" x2="1320" y2="1080" />
<line x1="1360" y1="0" x2="1360" y2="1080" />
<line x1="1400" y1="0" x2="1400" y2="1080" />
<line x1="1440" y1="0" x2="1440" y2="1080" />
<line x1="1480" y1="0" x2="1480" y2="1080" />
<line x1="1520" y1="0" x2="1520" y2="1080" />
<line x1="1560" y1="0" x2="1560" y2="1080" />
<line x1="1600" y1="0" x2="1600" y2="1080" />
<line x1="1640" y1="0" x2="1640" y2="1080" />
<line x1="1680" y1="0" x2="1680" y2="1080" />
<line x1="1720" y1="0" x2="1720" y2="1080" />
<line x1="1760" y1="0" x2="1760" y2="1080" />
<line x1="1800" y1="0" x2="1800" y2="1080" />
<line x1="1840" y1="0" x2="1840" y2="1080" />
<line x1="1880" y1="0" x2="1880" y2="1080" />
<line x1="0" y1="0" x2="1920" y2="0" />
<line x1="0" y1="40" x2="1920" y2="40" />
<line x1="0" y1="80" x2="1920" y2="80" />
<line x1="0" y1="120" x2="1920" y2="120" />
<line x1="0" y1="160" x2="1920" y2="160" />
<line x1="0" y1="200" x2="1920" y2="200" />
<line x1="0" y1="240" x2="1920" y2="240" />
<line x1="0" y1="280" x2="1920" y2="280" />
<line x1="0" y1="320" x2="1920" y2="320" />
<line x1="0" y1="360" x2="1920" y2="360" />
<line x1="0" y1="400" x2="1920" y2="400" />
<line x1="0" y1="440" x2="1920" y2="440" />
<line x1="0" y1="480" x2="1920" y2="480" />
<line x1="0" y1="520" x2="1920" y2="520" />
<line x1="0" y1="560" x2="1920" y2="560" />
<line x1="0" y1="600" x2="1920" y2="600" />
<line x1="0" y1="640" x2="1920" y2="640" />
<line x1="0" y1="680" x2="1920" y2="680" />
<line x1="0" y1="720" x2="1920" y2="720" />
<line x1="0" y1="760" x2="1920" y2="760" />
<line x1="0" y1="800" x2="1920" y2="800" />
<line x1="0" y1="840" x2="1920" y2="840" />
<line x1="0" y1="880" x2="1920" y2="880" />
<line x1="0" y1="920" x2="1920" y2="920" />
<line x1="0" y1="960" x2="1920" y2="960" />
<line x1="0" y1="1000" x2="1920" y2="1000" />
<line x1="0" y1="1040" x2="1920" y2="1040" />
</g>
<g fill="#1a5a8a" font-family="monospace" font-size="16" transform="translate(1000, 80)" opacity="0.7">
<text x="0" y="0">0010110100101100</text>
<text x="0" y="30">0000101110001011</text>
<text x="0" y="60">0010011001011010</text>
<text x="0" y="90">00100100  001100</text>
<text x="0" y="120">0000101   000011</text>
<text x="0" y="150">0020005111160117</text>
<text x="0" y="180">0110001011      </text>
<text x="0" y="210">010001100001100 </text>
<text x="0" y="240">00001110   1110 </text>
</g>

<g stroke="#2b77a6" stroke-width="3" fill="none" opacity="0.6" transform="translate(1100, 400)">
  <!-- Server box -->
  <rect x="100" y="0" width="80" height="50" />
  <line x1="140" y1="50" x2="140" y2="90" />
  
  <line x1="140" y1="90" x2="60" y2="170" />
  <line x1="140" y1="90" x2="220" y2="170" />
  
  <rect x="40" y="170" width="40" height="30" />
  <rect x="200" y="170" width="40" height="30" />
  
  <line x1="60" y1="200" x2="60" y2="240" />
  <line x1="220" y1="200" x2="220" y2="240" />
  
  <line x1="10" y1="240" x2="110" y2="240" />
  <rect x="0" y="240" width="30" height="20" />
  <rect x="40" y="240" width="30" height="20" />
  <rect x="80" y="240" width="30" height="20" />
  
  <line x1="170" y1="240" x2="270" y2="240" />
  <rect x="160" y="240" width="30" height="20" />
  <rect x="200" y="240" width="30" height="20" />
  <rect x="240" y="240" width="30" height="20" />
</g>
<g stroke="#1a5a8a" stroke-width="2.5" stroke-opacity="0.8" fill="none">
<path d="M 500,100 L 900,100 L 1000,0"/>
<path d="M 500,200 L 900,200 L 1100,0"/>
<path d="M 500,300 L 800,300 L 950,450 L 1200,450"/>
<path d="M 500,350 L 750,350 L 900,500 L 1050,500"/>
<path d="M 500,450 L 700,450 L 800,550 L 1000,550"/>
<path d="M 500,600 L 650,600 L 800,750 L 1100,750"/>
<path d="M 500,650 L 800,650 L 900,750 L 1400,750"/>
<path d="M 500,750 L 600,750 L 800,950 L 1100,950 L 1200,850"/>
<path d="M 500,850 L 750,850 L 900,700 L 1000,700"/>
<path d="M 500,950 L 700,950 L 800,850 L 1500,850"/>
</g>
<g fill="#2b77a6" filter="url(#glow)">
<circle cx="1000" cy="0" r="8"/>
<circle cx="1100" cy="0" r="8"/>
<circle cx="1200" cy="450" r="8"/>
<circle cx="1050" cy="500" r="8"/>
<circle cx="1000" cy="550" r="8"/>
<circle cx="1100" cy="750" r="8"/>
<circle cx="1400" cy="750" r="8"/>
<circle cx="1200" cy="850" r="8"/>
<circle cx="1000" cy="700" r="8"/>
<circle cx="1500" cy="850" r="8"/>
</g>
</svg>